<svg width="120" height="120" viewBox="0 0 120 120" fill="none" xmlns="http://www.w3.org/2000/svg">
<path d="M80.6248 31.875C80.6248 32.6167 80.4049 33.3417 79.9928 33.9584C79.5808 34.5751 78.9951 35.0557 78.3099 35.3396C77.6246 35.6234 76.8706 35.6977 76.1432 35.553C75.4158 35.4083 74.7476 35.0511 74.2232 34.5267C73.6987 34.0022 73.3416 33.334 73.1969 32.6066C73.0522 31.8792 73.1264 31.1252 73.4103 30.44C73.6941 29.7547 74.1747 29.1691 74.7914 28.757C75.4081 28.345 76.1331 28.125 76.8748 28.125C77.8694 28.125 78.8232 28.5201 79.5265 29.2234C80.2297 29.9266 80.6248 30.8805 80.6248 31.875ZM54.8107 62.55L36.0607 85.05C35.7428 85.4318 35.5894 85.9242 35.6342 86.419C35.6791 86.9138 35.9184 87.3706 36.2998 87.6891C36.6353 87.9724 37.0607 88.127 37.4998 88.125C37.7745 88.1248 38.0457 88.0642 38.2944 87.9476C38.5431 87.8309 38.7631 87.6611 38.9389 87.45L57.6889 64.95C57.9858 64.5661 58.1224 64.082 58.0697 63.5995C58.0171 63.1169 57.7794 62.6736 57.4066 62.3628C57.0338 62.0519 56.555 61.8978 56.0709 61.9327C55.5868 61.9676 55.1351 62.1889 54.8107 62.55ZM110.625 37.5C110.625 37.8088 110.549 38.1128 110.403 38.3851C110.258 38.6575 110.047 38.8896 109.79 39.061L99.3748 46.0032V56.25C99.3612 68.6779 94.4182 80.5928 85.6304 89.3806C76.8426 98.1684 64.9276 103.111 52.4998 103.125H3.74981C3.39666 103.125 3.05075 103.025 2.75191 102.837C2.45307 102.649 2.21344 102.38 2.06062 102.061C1.9078 101.743 1.848 101.388 1.88811 101.037C1.92821 100.686 2.06659 100.354 2.28731 100.078L46.8748 44.3438V35.625C46.8711 29.3006 49.1508 23.1874 53.2947 18.4097C57.4387 13.632 63.1682 10.5111 69.4297 9.62081C75.6912 8.73055 82.0636 10.1308 87.375 13.5642C92.6864 16.9975 96.5797 22.233 98.3389 28.3078L109.79 35.9391C110.047 36.1105 110.258 36.3426 110.403 36.6149C110.549 36.8872 110.625 37.1913 110.625 37.5ZM105.37 37.5L95.6764 31.0407C95.2954 30.7816 95.0208 30.3938 94.9029 29.9485C93.527 24.6484 90.2655 20.0319 85.7297 16.9643C81.1939 13.8966 75.695 12.5884 70.2637 13.2847C64.8323 13.981 59.8413 16.6341 56.226 20.7467C52.6107 24.8593 50.6192 30.1492 50.6248 35.625V45C50.6245 45.4262 50.479 45.8395 50.2123 46.1719L7.64981 99.375H52.4998C63.9335 99.3626 74.8953 94.8151 82.9801 86.7303C91.0649 78.6455 95.6124 67.6837 95.6248 56.25V45C95.6246 44.6913 95.7007 44.3872 95.8462 44.1149C95.9918 43.8426 96.2023 43.6105 96.4592 43.4391L105.37 37.5Z" fill="#D6F087"/>
</svg>
