<svg width="100" height="100" viewBox="0 0 100 100" fill="none" xmlns="http://www.w3.org/2000/svg">
<path d="M45.6249 8.55833L45.6041 8.52916L45.5499 8.57083C24.6333 10.7917 8.33325 28.4875 8.33325 50C8.33325 59.6333 11.6041 68.5042 17.0958 75.5625V75.5708H17.1041C20.5757 80.0432 24.9234 83.7601 29.8812 86.494C34.839 89.2279 40.3025 90.9214 45.9374 91.4708C46.1332 89.4875 46.6166 87.4125 47.3416 85.3167C38.3528 84.6492 29.9591 80.5709 23.8791 73.9167C24.1083 72.9167 24.2124 71.7542 24.2958 70.7458L24.3333 70.2542C24.4083 69.3375 24.4791 68.4542 24.5958 67.5625C24.8874 65.3667 25.3874 63.9 26.1666 63.0708C27.1666 62 28.1916 61.8208 30.3374 61.4417L30.7249 61.3708C31.8249 61.1792 33.2958 60.8833 34.7124 60.1125C36.2249 59.2875 37.5041 58.0292 38.4666 56.175C39.4374 54.3083 39.3666 52.3833 39.0999 50.8625C38.8574 49.6447 38.5373 48.4436 38.1416 47.2667C38.077 47.0613 38.0131 46.8558 37.9499 46.65C37.0958 43.8667 36.9916 42.5125 37.6958 41.4417C38.4624 40.275 39.5124 40.0083 42.2458 39.3L42.5999 39.2125C45.3749 38.4958 49.1333 37.2958 51.3083 32.6583C53.6666 27.6375 52.3374 21.975 50.8916 18.1333C50.4357 16.9265 49.9169 15.7443 49.3374 14.5917C49.5583 14.5833 49.7791 14.5833 49.9999 14.5833C56.6888 14.5731 63.2426 16.4663 68.8957 20.0417C68.0957 21.1042 67.0249 22.5042 65.8291 24C63.2041 27.2792 60.2458 30.6542 58.2291 32.1667C57.3005 32.8451 56.5954 33.7852 56.2041 34.8667C55.8674 35.8497 55.7885 36.9027 55.9749 37.925C56.2666 39.6583 57.1874 41.2833 58.0041 42.525C58.6832 43.5625 59.4832 44.6083 60.1541 45.4917L60.6124 46.0875C60.9999 46.6083 61.3208 47.0375 61.5583 47.4083C61.6791 47.5875 61.7666 47.7333 61.8249 47.8417C61.8833 47.9458 61.9041 48 61.9082 48.0042C62.0749 48.4625 62.2541 49.2125 62.4624 50.2542L62.5541 50.6958C64.4041 49.8708 66.4082 49.2375 68.5541 48.8417C68.3653 47.8242 68.1035 46.8216 67.7707 45.8417C67.3124 44.6042 66.3166 43.275 65.5999 42.325C65.4199 42.0884 65.2394 41.8523 65.0583 41.6167C64.4193 40.798 63.8093 39.9572 63.2291 39.0958C62.5833 38.1125 62.2708 37.4333 62.1666 37.0208C64.8749 34.9292 68.1999 31.0375 70.7082 27.9083C71.9416 26.3667 73.0416 24.9292 73.8624 23.8292C80.7348 30.0828 84.8665 38.7923 85.3624 48.0708C87.7791 48.2625 89.8624 48.5792 91.6541 48.95C91.0957 26.425 72.6624 8.33333 49.9999 8.33333C48.5249 8.33333 47.0624 8.40833 45.6249 8.55833ZM18.4833 66.1708C16.0001 61.3289 14.6655 55.9801 14.5832 50.5392C14.5008 45.0983 15.6729 39.7116 18.0084 34.7967C20.3439 29.8819 23.7802 25.5711 28.0506 22.1986C32.321 18.8262 37.3109 16.4827 42.6333 15.35C43.5811 16.9376 44.3883 18.6051 45.0457 20.3333C46.3541 23.8125 46.8791 27.3792 45.6541 30C44.7166 31.9917 43.3833 32.5542 41.0374 33.1583L40.3624 33.325C38.1458 33.8625 34.6499 34.7042 32.4749 38.0042C29.9708 41.8042 31.2041 45.9667 31.9749 48.4833L32.2249 49.2833C32.5583 50.3458 32.8083 51.1583 32.9416 51.9333C33.0999 52.8375 32.9833 53.1667 32.9249 53.2875C32.5083 54.0917 32.0916 54.4208 31.7249 54.6208C31.2666 54.8708 30.6666 55.0375 29.6333 55.2167C29.4666 55.25 29.2833 55.2792 29.0916 55.3083C27.1624 55.625 24.0958 56.1292 21.5999 58.8083C19.5749 60.975 18.8374 63.85 18.4833 66.1708ZM50.0291 92.5208C50.2791 88.5 52.0916 83.5958 55.1666 78.975C56.1624 77.2833 57.3916 75.5708 58.8583 73.9C63.8018 68.2758 70.333 64.281 77.5916 62.4417C78.1281 62.3074 78.5893 61.9655 78.8737 61.4912C79.1582 61.0169 79.2425 60.449 79.1082 59.9125C78.974 59.376 78.6321 58.9148 78.1578 58.6304C77.6835 58.3459 77.1156 58.2616 76.5791 58.3958C68.4983 60.4416 61.2273 64.8884 55.7249 71.15C54.6124 72.4208 53.5999 73.7417 52.6999 75.0792C52.2897 73.7012 52.082 72.271 52.0833 70.8333C52.0833 67.0125 54.0291 62.8625 57.1124 59.5708C60.6287 55.8297 65.3334 53.4236 70.4249 52.7625C82.0916 51.2208 89.3333 52.5125 93.6041 53.7083C94.1809 53.87 94.6991 54.194 95.097 54.6418C95.4949 55.0896 95.7557 55.6423 95.8484 56.2342C95.941 56.826 95.8616 57.432 95.6196 57.98C95.3775 58.528 94.9831 58.9948 94.4833 59.325C94.2458 59.4833 93.8624 59.8667 93.3999 60.7417C92.8535 61.8453 92.4073 62.9958 92.0666 64.1792C91.7041 65.3625 91.3583 66.6417 90.9833 68.0333L90.7416 68.9167C90.2791 70.625 89.7666 72.4583 89.1499 74.275C87.9333 77.8667 86.2166 81.7 83.3291 84.6417C80.3333 87.6958 76.2666 89.6 70.8332 89.6C65.2957 89.6 61.4291 87.3542 58.9582 84.7708C57.2749 87.8542 56.3999 90.7583 56.2666 92.9C56.2024 93.7167 55.82 94.4755 55.2019 95.013C54.5838 95.5506 53.7793 95.824 52.9616 95.7742C52.1439 95.7245 51.3784 95.3558 50.83 94.7473C50.2815 94.1388 49.9939 93.3393 50.0291 92.5208Z" fill="#121212" fill-opacity="0.5"/>
</svg>
