<svg width="50" height="50" viewBox="0 0 50 50" fill="none" xmlns="http://www.w3.org/2000/svg">
<path d="M23.1538 21.3077H25V37.9231H26.8462M49 25C49 31.3652 46.4714 37.4697 41.9706 41.9706C37.4697 46.4714 31.3652 49 25 49C18.6348 49 12.5303 46.4714 8.02944 41.9706C3.52856 37.4697 1 31.3652 1 25C1 18.6348 3.52856 12.5303 8.02944 8.02944C12.5303 3.52856 18.6348 1 25 1C31.3652 1 37.4697 3.52856 41.9706 8.02944C46.4714 12.5303 49 18.6348 49 25Z" stroke="black" stroke-width="2" stroke-linecap="round" stroke-linejoin="round"/>
<path d="M27 15C27 15.5304 26.7893 16.0391 26.4142 16.4142C26.0391 16.7893 25.5304 17 25 17C24.4696 17 23.9609 16.7893 23.5858 16.4142C23.2107 16.0391 23 15.5304 23 15C23 14.4696 23.2107 13.9609 23.5858 13.5858C23.9609 13.2107 24.4696 13 25 13C25.5304 13 26.0391 13.2107 26.4142 13.5858C26.7893 13.9609 27 14.4696 27 15Z" fill="black" stroke="black"/>
</svg>
