<svg width="120" height="120" viewBox="0 0 120 120" fill="none" xmlns="http://www.w3.org/2000/svg">
<path d="M102.867 18.8954C102.84 18.4367 102.646 18.0038 102.321 17.6789C101.996 17.354 101.563 17.1597 101.105 17.1329C66.1219 15.0751 38.1844 25.4954 26.3626 45.0001C18.2813 58.3876 18.7032 74.236 27.5626 89.7845L17.4235 99.9235C17.0717 100.275 16.874 100.753 16.874 101.25C16.874 101.748 17.0717 102.225 17.4235 102.577C17.7753 102.928 18.2525 103.126 18.7501 103.126C19.2476 103.126 19.7248 102.928 20.0766 102.577L30.2157 92.4329C38.3673 97.0782 46.6219 99.4126 54.511 99.4126C61.7433 99.4192 68.8358 97.4201 75.0001 93.6376C94.5048 81.8157 104.925 53.8735 102.867 18.8954ZM73.0407 90.4314C61.1485 97.636 46.9969 97.3454 32.9719 89.6767L76.3313 46.322C76.6831 45.9702 76.8808 45.493 76.8808 44.9954C76.8808 44.4979 76.6831 44.0207 76.3313 43.6689C75.9795 43.317 75.5023 43.1194 75.0048 43.1194C74.5072 43.1194 74.03 43.317 73.6782 43.6689L30.3235 87.0282C22.6548 73.0032 22.3548 58.8517 29.5688 46.9595C40.4719 28.9548 66.4313 19.2189 99.2157 20.7845C100.781 53.5689 91.0454 79.5282 73.0407 90.4314Z" fill="#D6F087"/>
</svg>
