<svg width="120" height="120" viewBox="0 0 120 120" fill="none" xmlns="http://www.w3.org/2000/svg">
<path d="M60 31.875C56.6624 31.875 53.3998 32.8647 50.6248 34.7189C47.8497 36.5732 45.6868 39.2087 44.4095 42.2922C43.1323 45.3757 42.7981 48.7687 43.4492 52.0421C44.1004 55.3156 45.7076 58.3224 48.0676 60.6824C50.4276 63.0424 53.4344 64.6496 56.7078 65.3007C59.9813 65.9519 63.3743 65.6177 66.4578 64.3405C69.5413 63.0632 72.1768 60.9003 74.0311 58.1252C75.8853 55.3502 76.875 52.0876 76.875 48.75C76.875 44.2745 75.0971 39.9822 71.9324 36.8176C68.7677 33.6529 64.4755 31.875 60 31.875ZM60 61.875C57.4041 61.875 54.8665 61.1052 52.7081 59.663C50.5497 58.2208 48.8675 56.171 47.8741 53.7727C46.8807 51.3744 46.6208 48.7354 47.1272 46.1894C47.6336 43.6434 48.8837 41.3048 50.7192 39.4692C52.5548 37.6337 54.8934 36.3836 57.4394 35.8772C59.9854 35.3708 62.6244 35.6307 65.0227 36.6241C67.421 37.6175 69.4708 39.2997 70.913 41.4581C72.3552 43.6165 73.125 46.1541 73.125 48.75C73.125 50.4736 72.7855 52.1803 72.1259 53.7727C71.4663 55.3651 70.4995 56.812 69.2808 58.0308C68.062 59.2495 66.6151 60.2163 65.0227 60.8759C63.4303 61.5355 61.7236 61.875 60 61.875ZM60 9.375C49.5605 9.38617 39.5518 13.5382 32.17 20.92C24.7882 28.3018 20.6362 38.3105 20.625 48.75C20.625 63.0094 27.2672 78.1828 39.8438 92.6344C45.5332 99.2088 51.9367 105.13 58.9359 110.287C59.2507 110.507 59.6254 110.625 60.0094 110.625C60.3933 110.625 60.768 110.507 61.0828 110.287C68.0755 105.128 74.4726 99.2077 80.1562 92.6344C92.7234 78.1828 99.375 63.0094 99.375 48.75C99.3638 38.3105 95.2118 28.3018 87.83 20.92C80.4482 13.5382 70.4395 9.38617 60 9.375ZM77.3906 90.1078C72.1521 96.1073 66.3262 101.567 60 106.406C53.6729 101.561 47.847 96.0951 42.6094 90.0891C34.2891 80.5312 24.375 65.5781 24.375 48.75C24.375 39.3017 28.1283 30.2403 34.8093 23.5593C41.4903 16.8783 50.5517 13.125 60 13.125C69.4483 13.125 78.5097 16.8783 85.1907 23.5593C91.8717 30.2403 95.625 39.3017 95.625 48.75C95.625 65.5781 85.7109 80.5312 77.3906 90.1078Z" fill="#D6F087"/>
</svg>
