<svg width="100" height="100" viewBox="0 0 100 100" fill="none" xmlns="http://www.w3.org/2000/svg">
<path d="M50.0001 16.6667C59.1667 16.6667 66.6667 24.1667 66.6667 33.3333C66.6667 42.0833 57.9167 56.25 50.0001 66.25C42.0834 55.8333 33.3334 42.0833 33.3334 33.3333C33.3334 24.1667 40.8334 16.6667 50.0001 16.6667ZM50.0001 8.33334C36.2501 8.33334 25.0001 19.5833 25.0001 33.3333C25.0001 52.0833 50.0001 79.1667 50.0001 79.1667C50.0001 79.1667 75.0001 51.6667 75.0001 33.3333C75.0001 19.5833 63.7501 8.33334 50.0001 8.33334ZM50.0001 25C45.4167 25 41.6667 28.75 41.6667 33.3333C41.6667 37.9167 45.4167 41.6667 50.0001 41.6667C54.5834 41.6667 58.3334 37.9167 58.3334 33.3333C58.3334 28.75 54.5834 25 50.0001 25ZM83.3334 79.1667C83.3334 88.3333 68.3334 95.8333 50.0001 95.8333C31.6667 95.8333 16.6667 88.3333 16.6667 79.1667C16.6667 73.75 21.6667 69.1667 29.5834 65.8333L32.0834 69.5833C27.9167 71.6667 25.0001 74.1667 25.0001 77.0833C25.0001 82.9167 36.2501 87.5 50.0001 87.5C63.7501 87.5 75.0001 82.9167 75.0001 77.0833C75.0001 74.1667 72.0834 71.6667 67.5001 69.5833L70.0001 65.8333C78.3334 69.1667 83.3334 73.75 83.3334 79.1667Z" fill="#121212" fill-opacity="0.5"/>
</svg>
