<svg width="120" height="120" viewBox="0 0 120 120" fill="none" xmlns="http://www.w3.org/2000/svg">
<g filter="url(#filter0_d_208_81)">
<path d="M67.3501 82.875V107.15C67.3502 107.57 67.185 107.973 66.8903 108.273C66.5957 108.572 66.1951 108.743 65.7751 108.75H54.2251C53.8051 108.743 53.4045 108.572 53.1099 108.273C52.8152 107.973 52.65 107.57 52.6501 107.15V82.875M60.0001 11.25C65.0458 11.25 69.8849 13.2544 73.4528 16.8223C77.0207 20.3902 79.0251 25.2293 79.0251 30.275V53.825C79.0251 58.8707 77.0207 63.7098 73.4528 67.2777C69.8849 70.8456 65.0458 72.85 60.0001 72.85C54.9544 72.85 50.1153 70.8456 46.5474 67.2777C42.9795 63.7098 40.9751 58.8707 40.9751 53.825V30.275C40.9751 25.2293 42.9795 20.3902 46.5474 16.8223C50.1153 13.2544 54.9544 11.25 60.0001 11.25Z" stroke="#D6F087" stroke-width="2.5" stroke-linecap="round" stroke-linejoin="round"/>
<path d="M30.5752 59.4751C31.9278 66.284 35.5999 72.413 40.9655 76.8176C46.3312 81.2222 53.0583 83.6296 60.0002 83.6296C66.9421 83.6296 73.6692 81.2222 79.0349 76.8176C84.4005 72.413 88.0726 66.284 89.4252 59.4751" stroke="#D6F087" stroke-width="2.5" stroke-linecap="round" stroke-linejoin="round"/>
</g>
<defs>
<filter id="filter0_d_208_81" x="-4" y="0" width="128" height="128" filterUnits="userSpaceOnUse" color-interpolation-filters="sRGB">
<feFlood flood-opacity="0" result="BackgroundImageFix"/>
<feColorMatrix in="SourceAlpha" type="matrix" values="0 0 0 0 0 0 0 0 0 0 0 0 0 0 0 0 0 0 127 0" result="hardAlpha"/>
<feOffset dy="4"/>
<feGaussianBlur stdDeviation="2"/>
<feComposite in2="hardAlpha" operator="out"/>
<feColorMatrix type="matrix" values="0 0 0 0 0 0 0 0 0 0 0 0 0 0 0 0 0 0 0.25 0"/>
<feBlend mode="normal" in2="BackgroundImageFix" result="effect1_dropShadow_208_81"/>
<feBlend mode="normal" in="SourceGraphic" in2="effect1_dropShadow_208_81" result="shape"/>
</filter>
</defs>
</svg>
