<svg width="42" height="30" viewBox="0 0 42 30" fill="none" xmlns="http://www.w3.org/2000/svg">
<path d="M1 20V12C1 11.4696 1.21071 10.9608 1.58579 10.5858C1.96086 10.2107 2.46957 9.99999 3 9.99999H8.394C8.78906 10.0001 9.17531 9.88316 9.504 9.66399L17.89 4.07199C18.1915 3.87084 18.542 3.7554 18.904 3.73799C19.266 3.72059 19.6259 3.80188 19.9453 3.97318C20.2647 4.14448 20.5315 4.39935 20.7173 4.71054C20.9031 5.02174 21.0008 5.37756 21 5.73999V26.26C21.0001 26.6221 20.9018 26.9774 20.7157 27.288C20.5297 27.5986 20.2628 27.8529 19.9435 28.0237C19.6243 28.1946 19.2646 28.2755 18.903 28.2579C18.5413 28.2404 18.1912 28.1249 17.89 27.924L9.504 22.334C9.17508 22.1155 8.78886 21.9993 8.394 22H3C2.46957 22 1.96086 21.7893 1.58579 21.4142C1.21071 21.0391 1 20.5304 1 20Z" stroke="black" stroke-width="1.5"/>
<path d="M30 7C30 7 33 10 33 15C33 20 30 23 30 23M36 1C36 1 41 6 41 15C41 24 36 29 36 29" stroke="black" stroke-width="1.5" stroke-linecap="round" stroke-linejoin="round"/>
</svg>
