<svg width="100" height="100" viewBox="0 0 100 100" fill="none" xmlns="http://www.w3.org/2000/svg">
<path d="M37.5001 20.8333C41.9204 20.8333 46.1596 22.5893 49.2852 25.7149C52.4108 28.8405 54.1667 33.0797 54.1667 37.5C54.1667 41.9203 52.4108 46.1595 49.2852 49.2851C46.1596 52.4107 41.9204 54.1667 37.5001 54.1667C33.0798 54.1667 28.8406 52.4107 25.715 49.2851C22.5894 46.1595 20.8334 41.9203 20.8334 37.5C20.8334 33.0797 22.5894 28.8405 25.715 25.7149C28.8406 22.5893 33.0798 20.8333 37.5001 20.8333ZM37.5001 62.5C48.6251 62.5 70.8334 68.0833 70.8334 79.1667V87.5H4.16675V79.1667C4.16675 68.0833 26.3751 62.5 37.5001 62.5ZM69.8334 22.3333C78.2501 31.5 78.2501 44.2083 69.8334 52.625L62.8334 45.5833C66.3334 40.6667 66.3334 34.2917 62.8334 29.375L69.8334 22.3333ZM83.6251 8.33334C100 25.2083 99.8751 50.4583 83.6251 66.6667L76.8334 59.875C88.3751 46.625 88.3751 27.7083 76.8334 15.125L83.6251 8.33334Z" fill="#121212" fill-opacity="0.5"/>
</svg>
