<svg width="100" height="100" viewBox="0 0 100 100" fill="none" xmlns="http://www.w3.org/2000/svg">
<path d="M45.8208 24.9917C51.1357 24.992 56.3186 26.6475 60.6495 29.7284C64.9803 32.8093 68.2442 37.1625 69.9875 42.1834L70.3 43.1542L70.4833 43.7542H80.1917C83.1091 43.7541 85.9166 44.8673 88.0413 46.8665C90.166 48.8658 91.4478 51.6005 91.625 54.5125L91.6459 55.2084V59.375C91.6447 61.2043 90.9561 62.9663 89.7166 64.3115C88.4771 65.6568 86.7772 66.487 84.9542 66.6375L84.3583 66.6584H77.5833L78.5875 69.0917C79.2817 70.7779 79.319 72.6629 78.6919 74.3752C78.0649 76.0875 76.819 77.5027 75.2 78.3417L74.6292 78.6084C73.9693 78.8809 73.273 79.055 72.5625 79.125L71.85 79.1584H64.4042C63.1314 79.1577 61.8809 78.8239 60.7772 78.1902C59.6734 77.5564 58.7547 76.6447 58.1125 75.5459L57.8125 74.975L55.5667 70.2125L55.7917 70.1834C49.9583 70.9584 44.0542 71.05 38.2042 70.4584L36.1333 70.2209L33.9042 74.9542C33.3152 76.206 32.3823 77.2644 31.2144 78.0059C30.0465 78.7474 28.6917 79.1413 27.3083 79.1417H19.7917C18.5942 79.1422 17.4151 78.8477 16.3586 78.2841C15.3021 77.7205 14.4007 76.9053 13.7342 75.9104C13.0677 74.9156 12.6566 73.7719 12.5373 72.5804C12.4179 71.389 12.594 70.1864 13.05 69.0792L14.8542 64.7042C12.857 63.502 11.2049 61.8034 10.0586 59.7736C8.91231 57.7438 8.31077 55.452 8.3125 53.1209C8.31354 52.3664 8.58748 51.6378 9.08373 51.0696C9.57999 50.5013 10.2651 50.1318 11.0125 50.0292L11.4375 50H19.2708L21.3417 43.1542C22.932 37.9003 26.1708 33.2977 30.5792 30.0269C34.9876 26.756 40.3316 24.9906 45.8208 24.9917ZM74.0583 65.3792C70.8458 66.6709 67.5625 67.7334 64.2417 68.5667L61.9542 69.1042L63.4625 72.3125C63.5634 72.5288 63.7355 72.7038 63.95 72.8084L64.1708 72.8834L64.4042 72.9125H71.85C71.9973 72.9124 72.1429 72.8811 72.2771 72.8206C72.4114 72.7601 72.5313 72.6718 72.629 72.5615C72.7266 72.4513 72.7998 72.3216 72.8436 72.181C72.8875 72.0404 72.901 71.8921 72.8833 71.7459L72.8125 71.475L70.8208 66.6584H70.6417L72.3542 66.0417L74.0583 65.3792ZM17.5917 65.3792L19.2167 66.0125L20.8333 66.6L18.825 71.4584C18.7599 71.6168 18.7349 71.7889 18.7522 71.9593C18.7695 72.1298 18.8285 72.2933 18.9241 72.4355C19.0197 72.5776 19.1489 72.694 19.3002 72.7743C19.4516 72.8546 19.6204 72.8964 19.7917 72.8959H27.3083L27.5458 72.8667C27.6994 72.8313 27.8429 72.7616 27.9656 72.6627C28.0883 72.5638 28.187 72.4384 28.2542 72.2959L29.75 69.1167L29.9333 69.1584C25.7195 68.2537 21.5906 66.9907 17.5917 65.3834V65.3792ZM16.75 58.3209L17.3792 56.2375L15.2667 56.2459L15.3708 56.4625C15.7292 57.1542 16.2 57.7792 16.75 58.3209ZM72.375 50L75.525 60.4084L84.3583 60.4125C84.5925 60.4124 84.8197 60.3333 85.0034 60.1882C85.1871 60.0431 85.3165 59.8403 85.3708 59.6125L85.4 59.3709V55.2084C85.3996 53.9197 84.9214 52.6769 84.0579 51.7203C83.1944 50.7637 82.0069 50.1612 80.725 50.0292L80.1917 50.0042H72.375V50Z" fill="#121212" fill-opacity="0.5"/>
</svg>
