<svg width="100" height="100" viewBox="0 0 100 100" fill="none" xmlns="http://www.w3.org/2000/svg">
<path d="M45.8208 24.9916C51.1357 24.9919 56.3186 26.6475 60.6495 29.7283C64.9803 32.8092 68.2442 37.1625 69.9875 42.1833L70.3 43.1541L70.4833 43.7541H80.1917C83.1091 43.7541 85.9166 44.8672 88.0413 46.8665C90.166 48.8658 91.4478 51.6004 91.625 54.5125L91.6459 55.2083V59.375C91.6447 61.2042 90.9561 62.9662 89.7166 64.3115C88.4771 65.6567 86.7772 66.4869 84.9542 66.6375L84.3583 66.6583H77.5833L78.5875 69.0916C79.2817 70.7778 79.319 72.6629 78.6919 74.3752C78.0649 76.0874 76.819 77.5026 75.2 78.3416L74.6292 78.6083C73.9693 78.8808 73.273 79.0549 72.5625 79.125L71.85 79.1583H64.4042C63.1314 79.1576 61.8809 78.8238 60.7772 78.1901C59.6734 77.5563 58.7547 76.6447 58.1125 75.5458L57.8125 74.975L55.5667 70.2125L55.7917 70.1833C49.9583 70.9583 44.0542 71.05 38.2042 70.4583L36.1333 70.2208L33.9042 74.9541C33.3152 76.2059 32.3823 77.2644 31.2144 78.0058C30.0465 78.7473 28.6917 79.1412 27.3083 79.1416H19.7917C18.5942 79.1422 17.4151 78.8476 16.3586 78.284C15.3021 77.7204 14.4007 76.9052 13.7342 75.9104C13.0677 74.9156 12.6566 73.7719 12.5373 72.5804C12.4179 71.3889 12.594 70.1864 13.05 69.0791L14.8542 64.7041C12.857 63.5019 11.2049 61.8033 10.0586 59.7736C8.91231 57.7438 8.31077 55.4519 8.3125 53.1208C8.31354 52.3664 8.58748 51.6378 9.08373 51.0695C9.57999 50.5013 10.2651 50.1317 11.0125 50.0291L11.4375 50H19.2708L21.3417 43.1541C22.932 37.9003 26.1708 33.2976 30.5792 30.0268C34.9876 26.756 40.3316 24.9906 45.8208 24.9916ZM74.0583 65.3791C70.8458 66.6708 67.5625 67.7333 64.2417 68.5666L61.9542 69.1041L63.4625 72.3125C63.5634 72.5287 63.7355 72.7037 63.95 72.8083L64.1708 72.8833L64.4042 72.9125H71.85C71.9973 72.9124 72.1429 72.881 72.2771 72.8205C72.4114 72.76 72.5313 72.6717 72.629 72.5615C72.7266 72.4512 72.7998 72.3215 72.8436 72.1809C72.8875 72.0403 72.901 71.892 72.8833 71.7458L72.8125 71.475L70.8208 66.6583H70.6417L72.3542 66.0416L74.0583 65.3791ZM17.5917 65.3791L19.2167 66.0125L20.8333 66.6L18.825 71.4583C18.7599 71.6168 18.7349 71.7888 18.7522 71.9593C18.7695 72.1297 18.8285 72.2933 18.9241 72.4354C19.0197 72.5776 19.1489 72.694 19.3002 72.7743C19.4516 72.8546 19.6204 72.8963 19.7917 72.8958H27.3083L27.5458 72.8666C27.6994 72.8313 27.8429 72.7615 27.9656 72.6626C28.0883 72.5638 28.187 72.4383 28.2542 72.2958L29.75 69.1166L29.9333 69.1583C25.7195 68.2536 21.5906 66.9907 17.5917 65.3833V65.3791ZM16.75 58.3208L17.3792 56.2375L15.2667 56.2458L15.3708 56.4625C15.7292 57.1541 16.2 57.7791 16.75 58.3208ZM72.375 50L75.525 60.4083L84.3583 60.4125C84.5925 60.4123 84.8197 60.3333 85.0034 60.1881C85.1871 60.043 85.3165 59.8402 85.3708 59.6125L85.4 59.3708V55.2083C85.3996 53.9196 84.9214 52.6768 84.0579 51.7202C83.1944 50.7636 82.0069 50.1611 80.725 50.0291L80.1917 50.0041H72.375V50Z" fill="#121212"/>
</svg>
