<svg width="120" height="120" viewBox="0 0 120 120" fill="none" xmlns="http://www.w3.org/2000/svg">
<path d="M54.618 24.012C45.762 24.012 39.624 27.312 35.328 32.28C31.164 37.092 28.872 43.308 27.18 48.894L25.632 54H15C14.2044 54 13.4413 54.316 12.8787 54.8786C12.3161 55.4413 12 56.2043 12 57C12 63.456 14.982 69.612 19.782 72.78L17.136 79.212C16.6427 80.4066 16.4516 81.7044 16.5796 82.9905C16.7076 84.2766 17.1508 85.5113 17.8699 86.5852C18.5891 87.6592 19.5619 88.5392 20.7023 89.1474C21.8427 89.7555 23.1155 90.0731 24.408 90.072H33.18C36.228 90.072 39 88.308 40.296 85.554L43.116 79.554C51 80.646 58.986 80.646 66.87 79.554L69.69 85.554C70.986 88.314 73.758 90.072 76.806 90.072H85.494C86.7865 90.0731 88.0593 89.7555 89.1997 89.1474C90.3401 88.5392 91.3129 87.6592 92.0321 86.5852C92.7512 85.5113 93.1944 84.2766 93.3224 82.9905C93.4504 81.7044 93.2593 80.4066 92.766 79.212L89.778 71.976H99.996C104.046 71.976 108 68.85 108 64.434V60C108 53.178 102.072 48.024 95.274 48.024H82.824C81.108 42.582 78.588 36.768 74.376 32.208C69.828 27.294 63.468 24.012 54.618 24.012ZM88.032 65.982L84.576 54.018H95.274C99.216 54.018 102 56.928 102 59.994V64.44C102 64.98 101.322 65.982 99.996 65.982H88.032ZM84.606 75.174L87.216 81.504C87.3336 81.7869 87.3795 82.0946 87.3496 82.3996C87.3197 82.7046 87.2149 82.9975 87.0444 83.2522C86.874 83.5069 86.6433 83.7156 86.3729 83.8596C86.1024 84.0037 85.8005 84.0787 85.494 84.078H76.806C76.4519 84.078 76.1051 83.977 75.8065 83.7867C75.5078 83.5965 75.2696 83.3249 75.12 83.004L72.996 78.486C76.9371 77.6484 80.8162 76.5418 84.606 75.174ZM36.99 78.492L34.866 83.004C34.7168 83.324 34.4796 83.5949 34.1821 83.7851C33.8846 83.9753 33.5391 84.0769 33.186 84.078H24.402C24.0961 84.0772 23.795 84.0013 23.5253 83.8568C23.2557 83.7124 23.0256 83.5038 22.8555 83.2495C22.6854 82.9953 22.5804 82.7031 22.5498 82.3987C22.5192 82.0943 22.5639 81.787 22.68 81.504L25.29 75.15C29.13 76.542 33.042 77.658 36.99 78.492ZM21.792 66.702C19.9467 64.8915 18.7168 62.5472 18.276 60H23.82L21.792 66.702ZM32.928 50.634C34.578 45.162 36.582 40.002 39.864 36.204C43.014 32.562 47.484 30.012 54.624 30.012C61.782 30.012 66.552 32.58 69.972 36.276C73.488 40.086 75.72 45.246 77.352 50.616L82.788 69.45C64.8509 76.0149 45.1694 76.0213 27.228 69.468L32.928 50.628V50.634Z" fill="#D6F087"/>
</svg>
